<?xml version="1.0" encoding="utf-8"?>
<!-- Generator: Adobe Illustrator 16.0.4, SVG Export Plug-In . SVG Version: 6.00 Build 0)  -->
<!DOCTYPE svg PUBLIC "-//W3C//DTD SVG 1.1//EN" "http://www.w3.org/Graphics/SVG/1.1/DTD/svg11.dtd">
<svg version="1.1" id="Layer_1" xmlns="http://www.w3.org/2000/svg" xmlns:xlink="http://www.w3.org/1999/xlink" x="0px" y="0px"
	 width="172.062px" height="104.649px" viewBox="0 0 172.062 104.649" enable-background="new 0 0 172.062 104.649"
	 xml:space="preserve">
<g>
	<polygon fill="#FFFFFF" points="99.989,25.457 110.576,25.457 110.576,65.532 121.388,65.532 121.388,25.457 131.974,25.457 
		131.974,15.854 99.989,15.854 	"/>
	<g>
		<defs>
			<rect id="SVGID_1_" x="0.001" width="172.062" height="73.474"/>
		</defs>
		<clipPath id="SVGID_2_">
			<use xlink:href="#SVGID_1_"  overflow="visible"/>
		</clipPath>
		<path clip-path="url(#SVGID_2_)" fill="#FFFFFF" d="M79.636,50.183c0,4.007-2.344,6.503-6.049,6.503
			c-3.781,0-6.049-2.496-6.049-6.503V15.854H56.725v34.479c0,9.83,6.805,15.955,16.862,15.955c10.056,0,16.861-6.125,16.861-15.955
			V15.854H79.636V50.183z"/>
		<path clip-path="url(#SVGID_2_)" fill="#FFFFFF" d="M159.964,36.042l-6.199-2.344c-3.403-1.285-4.009-3.478-4.009-4.915
			c0-2.722,1.967-4.763,5.444-4.763c3.403,0,5.671,2.268,5.671,5.822v1.361h10.133V30.07c0-9.225-6.352-14.972-15.804-14.972
			c-9.905,0-15.652,6.806-15.652,14.367c0,7.259,3.781,11.569,10.965,14.291l6.956,2.646c3.101,1.211,4.31,2.873,4.31,5.369
			c0,3.479-2.269,5.52-6.352,5.52s-6.577-1.891-6.577-5.897v-1.815h-10.208v1.74c0,9.225,7.106,14.971,16.785,14.971
			c10.586,0,16.636-6.426,16.636-15.576C172.062,41.562,166.164,38.387,159.964,36.042"/>
		
			<rect x="1.376" y="33.007" transform="matrix(0.7072 0.707 -0.707 0.7072 27.0596 7.3151)" clip-path="url(#SVGID_2_)" fill="#FFFFFF" width="6.643" height="6.643"/>
		<path clip-path="url(#SVGID_2_)" fill="#FFFFFF" d="M19.913,37.448l3.578,3.578l4.697-4.698l-4.786-4.786
			c-1.927-1.927-5.051-1.927-6.978,0L0,47.966l4.697,4.699L19.913,37.448z"/>
		<path clip-path="url(#SVGID_2_)" fill="#FFFFFF" d="M18.794,57.362l-4.697-4.697l-3.578,3.576L6.94,52.665l-4.699,4.699
			l4.786,4.785c1.927,1.928,5.051,1.928,6.979,0L18.794,57.362z"/>
		<path clip-path="url(#SVGID_2_)" fill="#FFFFFF" d="M19.913,65.638l-3.578-3.578l-4.698,4.699l4.788,4.789
			c1.927,1.926,5.051,1.926,6.978,0l4.788-4.789l-4.699-4.699L19.913,65.638z"/>
		<path clip-path="url(#SVGID_2_)" fill="#FFFFFF" d="M29.309,56.242l-3.578-3.578l-4.697,4.698l4.788,4.787
			c1.927,1.928,5.051,1.928,6.978,0l4.786-4.786l-4.699-4.699L29.309,56.242z"/>
		
			<rect x="31.805" y="44.644" transform="matrix(-0.707 -0.7072 0.7072 -0.707 26.0449 106.7214)" clip-path="url(#SVGID_2_)" fill="#FFFFFF" width="6.646" height="6.644"/>
		<path clip-path="url(#SVGID_2_)" fill="#FFFFFF" d="M19.913,46.847l-3.578-3.578l-4.696,4.698l4.786,4.786
			c1.927,1.928,5.051,1.928,6.978,0l16.424-16.424l-4.699-4.699L19.913,46.847z"/>
		
			<rect x="15.483" y="1.836" transform="matrix(0.707 0.7072 -0.7072 0.707 10.2662 -12.2466)" clip-path="url(#SVGID_2_)" fill="#FFFFFF" width="8.862" height="8.861"/>
		<path clip-path="url(#SVGID_2_)" fill="#FFFFFF" d="M12.097,20.529h4.493v8.894c2.041-1.21,4.604-1.21,6.646-0.002v-8.892h4.493
			l2.944,2.943l6.264-6.265l-6.264-6.265l-2.944,2.944H12.097l-2.943-2.944l-6.265,6.265l6.265,6.265L12.097,20.529z"/>
	</g>
</g>
<text transform="matrix(1 0 0 1 12.7251 98.6494)" fill="#FFFFFF" font-family="'NBInternationalPro-Reg'" font-size="24">ithree institute</text>
</svg>
